<svg width="1062" height="241" viewBox="0 0 1062 241" fill="none" xmlns="http://www.w3.org/2000/svg">
<g filter="url(#filter0_d_209_107)">
<rect x="4" width="1054" height="233" rx="5" fill="#C985F1"/>
</g>
<path d="M425.88 127V98.44H429.48V123.8H441.96V127H425.88ZM470.995 112.68C470.995 114.893 470.715 116.907 470.155 118.72C469.595 120.507 468.755 122.053 467.635 123.36C466.542 124.667 465.169 125.667 463.515 126.36C461.889 127.053 459.995 127.4 457.835 127.4C455.595 127.4 453.649 127.053 451.995 126.36C450.342 125.64 448.969 124.64 447.875 123.36C446.782 122.053 445.969 120.493 445.435 118.68C444.902 116.867 444.635 114.853 444.635 112.64C444.635 109.707 445.115 107.147 446.075 104.96C447.035 102.773 448.489 101.067 450.435 99.84C452.409 98.6133 454.889 98 457.875 98C460.729 98 463.129 98.6133 465.075 99.84C467.022 101.04 468.489 102.747 469.475 104.96C470.489 107.147 470.995 109.72 470.995 112.68ZM448.435 112.68C448.435 115.08 448.769 117.147 449.435 118.88C450.102 120.613 451.129 121.947 452.515 122.88C453.929 123.813 455.702 124.28 457.835 124.28C459.995 124.28 461.755 123.813 463.115 122.88C464.502 121.947 465.529 120.613 466.195 118.88C466.862 117.147 467.195 115.08 467.195 112.68C467.195 109.08 466.449 106.267 464.955 104.24C463.462 102.187 461.102 101.16 457.875 101.16C455.715 101.16 453.929 101.627 452.515 102.56C451.129 103.467 450.102 104.787 449.435 106.52C448.769 108.227 448.435 110.28 448.435 112.68ZM489.725 111.92H499.605V125.92C498.059 126.427 496.499 126.8 494.925 127.04C493.352 127.28 491.565 127.4 489.565 127.4C486.605 127.4 484.112 126.813 482.085 125.64C480.059 124.44 478.512 122.747 477.445 120.56C476.405 118.347 475.885 115.733 475.885 112.72C475.885 109.733 476.472 107.147 477.645 104.96C478.819 102.773 480.499 101.08 482.685 99.88C484.899 98.6533 487.565 98.04 490.685 98.04C492.285 98.04 493.792 98.1867 495.205 98.48C496.645 98.7733 497.979 99.1867 499.205 99.72L497.845 102.84C496.832 102.387 495.685 102 494.405 101.68C493.152 101.36 491.845 101.2 490.485 101.2C488.219 101.2 486.272 101.667 484.645 102.6C483.019 103.533 481.779 104.867 480.925 106.6C480.072 108.307 479.645 110.347 479.645 112.72C479.645 114.987 480.005 117 480.725 118.76C481.472 120.493 482.632 121.853 484.205 122.84C485.779 123.8 487.845 124.28 490.405 124.28C491.259 124.28 492.005 124.253 492.645 124.2C493.312 124.12 493.912 124.027 494.445 123.92C495.005 123.813 495.525 123.707 496.005 123.6V115.12H489.725V111.92ZM514.467 127H504.147V124.92L507.507 124.16V101.32L504.147 100.52V98.44H514.467V100.52L511.107 101.32V124.16L514.467 124.92V127ZM542.622 127H538.422L523.142 103.28H522.982C523.008 103.76 523.035 104.293 523.062 104.88C523.115 105.467 523.155 106.107 523.182 106.8C523.208 107.467 523.235 108.16 523.262 108.88C523.288 109.6 523.302 110.32 523.302 111.04V127H519.982V98.44H524.142L539.382 122.08H539.542C539.515 121.76 539.488 121.32 539.462 120.76C539.435 120.173 539.408 119.533 539.382 118.84C539.355 118.12 539.328 117.387 539.302 116.64C539.275 115.893 539.262 115.2 539.262 114.56V98.44H542.622V127ZM569.058 98.44L558.418 127H554.978L565.618 98.44H569.058ZM593.667 101.2C592.147 101.2 590.774 101.467 589.547 102C588.32 102.507 587.28 103.267 586.427 104.28C585.574 105.267 584.92 106.48 584.467 107.92C584.014 109.333 583.787 110.933 583.787 112.72C583.787 115.067 584.147 117.107 584.867 118.84C585.614 120.573 586.707 121.907 588.147 122.84C589.614 123.773 591.44 124.24 593.627 124.24C594.88 124.24 596.067 124.133 597.187 123.92C598.307 123.707 599.4 123.44 600.467 123.12V126.24C599.4 126.64 598.294 126.933 597.147 127.12C596.027 127.307 594.68 127.4 593.107 127.4C590.2 127.4 587.774 126.8 585.827 125.6C583.88 124.4 582.414 122.693 581.427 120.48C580.467 118.267 579.987 115.667 579.987 112.68C579.987 110.52 580.28 108.547 580.867 106.76C581.48 104.973 582.36 103.427 583.507 102.12C584.68 100.813 586.12 99.8133 587.827 99.12C589.534 98.4 591.494 98.04 593.707 98.04C595.174 98.04 596.587 98.1867 597.947 98.48C599.307 98.7733 600.52 99.1867 601.587 99.72L600.147 102.76C599.267 102.36 598.28 102 597.187 101.68C596.12 101.36 594.947 101.2 593.667 101.2ZM624.62 127L621.18 118.16H609.86L606.46 127H602.82L613.98 98.32H617.22L628.34 127H624.62ZM616.9 106.32C616.82 106.107 616.687 105.72 616.5 105.16C616.314 104.6 616.127 104.027 615.94 103.44C615.78 102.827 615.647 102.36 615.54 102.04C615.407 102.573 615.26 103.12 615.1 103.68C614.967 104.213 614.82 104.707 614.66 105.16C614.527 105.613 614.407 106 614.3 106.32L611.06 114.96H620.1L616.9 106.32ZM655.127 112.44C655.127 115.64 654.527 118.32 653.327 120.48C652.154 122.64 650.461 124.267 648.247 125.36C646.034 126.453 643.354 127 640.207 127H632.247V98.44H641.047C643.927 98.44 646.421 98.9733 648.527 100.04C650.634 101.107 652.261 102.68 653.407 104.76C654.554 106.813 655.127 109.373 655.127 112.44ZM651.327 112.56C651.327 110.027 650.901 107.947 650.047 106.32C649.221 104.693 647.994 103.493 646.367 102.72C644.767 101.92 642.821 101.52 640.527 101.52H635.847V123.92H639.727C643.594 123.92 646.487 122.973 648.407 121.08C650.354 119.16 651.327 116.32 651.327 112.56ZM678.605 127L675.165 118.16H663.845L660.445 127H656.805L667.965 98.32H671.205L682.325 127H678.605ZM670.885 106.32C670.805 106.107 670.671 105.72 670.485 105.16C670.298 104.6 670.111 104.027 669.925 103.44C669.765 102.827 669.631 102.36 669.525 102.04C669.391 102.573 669.245 103.12 669.085 103.68C668.951 104.213 668.805 104.707 668.645 105.16C668.511 105.613 668.391 106 668.285 106.32L665.045 114.96H674.085L670.885 106.32ZM702.432 119.36C702.432 121.067 702.018 122.52 701.192 123.72C700.365 124.893 699.178 125.8 697.632 126.44C696.112 127.08 694.312 127.4 692.232 127.4C691.165 127.4 690.138 127.347 689.152 127.24C688.192 127.133 687.312 126.987 686.512 126.8C685.712 126.587 685.005 126.333 684.392 126.04V122.6C685.352 123.027 686.538 123.413 687.952 123.76C689.392 124.107 690.872 124.28 692.392 124.28C693.805 124.28 694.992 124.093 695.952 123.72C696.912 123.347 697.632 122.813 698.112 122.12C698.592 121.427 698.832 120.613 698.832 119.68C698.832 118.747 698.632 117.96 698.232 117.32C697.832 116.68 697.138 116.093 696.152 115.56C695.192 115 693.845 114.413 692.112 113.8C690.885 113.347 689.805 112.867 688.872 112.36C687.965 111.827 687.205 111.227 686.592 110.56C685.978 109.893 685.512 109.133 685.192 108.28C684.898 107.427 684.752 106.44 684.752 105.32C684.752 103.8 685.138 102.507 685.912 101.44C686.685 100.347 687.752 99.5067 689.112 98.92C690.498 98.3333 692.085 98.04 693.872 98.04C695.445 98.04 696.885 98.1867 698.192 98.48C699.498 98.7733 700.685 99.16 701.752 99.64L700.632 102.72C699.645 102.293 698.565 101.933 697.392 101.64C696.245 101.347 695.045 101.2 693.792 101.2C692.592 101.2 691.592 101.373 690.792 101.72C689.992 102.067 689.392 102.56 688.992 103.2C688.592 103.813 688.392 104.533 688.392 105.36C688.392 106.32 688.592 107.12 688.992 107.76C689.392 108.4 690.045 108.973 690.952 109.48C691.858 109.987 693.085 110.533 694.632 111.12C696.312 111.733 697.725 112.4 698.872 113.12C700.045 113.813 700.925 114.653 701.512 115.64C702.125 116.627 702.432 117.867 702.432 119.36ZM717.225 127H713.625V101.6H704.705V98.44H726.105V101.6H717.225V127ZM738.291 98.44C740.665 98.44 742.611 98.7467 744.131 99.36C745.678 99.9467 746.825 100.84 747.571 102.04C748.318 103.24 748.691 104.747 748.691 106.56C748.691 108.08 748.411 109.347 747.851 110.36C747.291 111.373 746.571 112.187 745.691 112.8C744.838 113.387 743.931 113.853 742.971 114.2L750.811 127H746.611L739.691 115.2H734.011V127H730.411V98.44H738.291ZM738.091 101.56H734.011V112.16H738.291C739.838 112.16 741.105 111.96 742.091 111.56C743.078 111.133 743.798 110.52 744.251 109.72C744.731 108.92 744.971 107.92 744.971 106.72C744.971 105.467 744.718 104.467 744.211 103.72C743.731 102.973 742.985 102.427 741.971 102.08C740.958 101.733 739.665 101.56 738.091 101.56ZM780.214 112.68C780.214 114.893 779.934 116.907 779.374 118.72C778.814 120.507 777.974 122.053 776.854 123.36C775.761 124.667 774.387 125.667 772.734 126.36C771.107 127.053 769.214 127.4 767.054 127.4C764.814 127.4 762.867 127.053 761.214 126.36C759.561 125.64 758.187 124.64 757.094 123.36C756.001 122.053 755.187 120.493 754.654 118.68C754.121 116.867 753.854 114.853 753.854 112.64C753.854 109.707 754.334 107.147 755.294 104.96C756.254 102.773 757.707 101.067 759.654 99.84C761.627 98.6133 764.107 98 767.094 98C769.947 98 772.347 98.6133 774.294 99.84C776.241 101.04 777.707 102.747 778.694 104.96C779.707 107.147 780.214 109.72 780.214 112.68ZM757.654 112.68C757.654 115.08 757.987 117.147 758.654 118.88C759.321 120.613 760.347 121.947 761.734 122.88C763.147 123.813 764.921 124.28 767.054 124.28C769.214 124.28 770.974 123.813 772.334 122.88C773.721 121.947 774.747 120.613 775.414 118.88C776.081 117.147 776.414 115.08 776.414 112.68C776.414 109.08 775.667 106.267 774.174 104.24C772.681 102.187 770.321 101.16 767.094 101.16C764.934 101.16 763.147 101.627 761.734 102.56C760.347 103.467 759.321 104.787 758.654 106.52C757.987 108.227 757.654 110.28 757.654 112.68Z" fill="white"/>
<path d="M375.984 37.0874C374.826 37.0874 373.642 37.433 372.559 38.1227C369.603 40.2904 363.101 43.6396 352.656 42.2602C349.306 41.669 346.348 44.4294 346.348 47.7794V52.7059H293.735C286.444 52.7059 280.534 58.6161 280.534 65.9073V150.054C280.731 157.148 286.641 163.059 293.735 163.059H347.73C355.021 163.059 360.931 157.149 360.931 149.857V97.8331C363.887 100.789 367.434 103.351 371.77 105.715C374.134 107.095 377.09 107.095 379.652 105.715C404.087 92.5125 405.27 67.8786 405.27 66.6963V47.7794C405.27 44.4294 402.512 41.669 399.162 42.2602C388.717 43.6396 382.215 40.2904 379.259 38.1227C378.274 37.433 377.142 37.0874 375.984 37.0874ZM375.888 55.6463C380.32 55.6787 383.789 59.2573 383.789 63.7404C383.986 66.6963 382.609 69.258 380.245 70.6374L381.23 77.5345C381.427 79.111 380.242 80.2941 378.863 80.2941H372.755C371.375 80.2941 370.195 79.111 370.392 77.5345L371.377 70.6374C368.421 68.6668 367.236 65.3168 368.025 61.7698C368.813 58.8139 371.178 56.4492 373.936 55.858C374.602 55.7102 375.255 55.6417 375.888 55.6463ZM293.735 56.647H346.152V66.8925C346.152 67.6808 346.743 81.2778 356.99 93.4955V149.857C356.99 154.981 352.854 159.118 347.73 159.118H293.735C288.612 159.118 284.475 154.981 284.475 149.857V65.711C284.672 60.7845 288.809 56.647 293.735 56.647ZM320.931 68.4706C309.304 68.4706 299.451 78.128 299.451 89.7545C299.451 101.578 309.107 111.034 320.931 111.034C332.557 111.034 342.211 101.578 342.211 89.7545C342.211 77.9309 332.557 68.4706 320.931 68.4706ZM320.931 72.4117C330.587 72.4117 338.27 80.2956 338.27 89.7545C338.27 95.4692 335.314 99.4103 335.314 99.6074C332.752 96.8486 329.402 94.6809 325.461 93.6956C327.628 92.3162 329.009 89.9507 329.009 86.9949C329.009 82.4625 325.463 78.9162 320.931 78.9162C316.398 78.9162 312.848 82.4625 312.848 86.9949C312.848 89.5566 314.032 92.1192 316.397 93.6956C312.456 94.6809 309.106 96.6515 306.544 99.6074C306.544 99.4103 303.588 95.6662 303.588 89.7545C303.391 80.0986 311.275 72.4117 320.931 72.4117ZM294.805 116.542C293.655 116.655 292.75 117.71 292.75 118.917V125.618C292.75 126.997 293.934 128.181 295.313 128.181H346.348C347.728 128.181 348.912 126.997 348.912 125.618V119.113C348.912 117.734 347.728 116.554 346.348 116.554H295.313C295.141 116.529 294.969 116.526 294.805 116.542ZM298.662 120.098C299.844 120.098 300.828 121.087 300.828 122.269C300.828 123.452 299.844 124.436 298.662 124.436C297.479 124.436 296.495 123.452 296.495 122.269C296.495 121.087 297.479 120.098 298.662 120.098ZM305.559 120.098C306.741 120.098 307.725 121.087 307.725 122.269C307.725 123.452 306.741 124.436 305.559 124.436C304.376 124.436 303.392 123.452 303.392 122.269C303.392 121.087 304.376 120.098 305.559 120.098ZM312.259 120.098C313.442 120.098 314.426 121.087 314.426 122.269C314.426 123.452 313.442 124.436 312.259 124.436C311.077 124.436 310.093 123.452 310.093 122.269C310.29 121.087 311.274 120.098 312.259 120.098ZM319.156 120.098C320.339 120.098 321.323 121.087 321.323 122.269C321.323 123.452 320.339 124.436 319.156 124.436C317.974 124.436 316.99 123.452 316.99 122.269C317.187 121.087 318.171 120.098 319.156 120.098ZM326.054 120.098C327.236 120.098 328.22 121.087 328.22 122.269C328.22 123.452 327.236 124.436 326.054 124.436C324.871 124.436 323.887 123.452 323.887 122.269C324.084 121.087 324.871 120.098 326.054 120.098ZM383.397 124.24C373.938 124.24 366.254 131.923 366.254 141.382C366.254 150.841 373.938 158.525 383.397 158.525C392.856 158.525 400.539 150.841 400.539 141.382C400.539 131.923 392.856 124.24 383.397 124.24ZM383.397 128.181C390.688 128.181 396.598 134.091 396.598 141.382C396.598 148.673 390.688 154.584 383.397 154.584C376.106 154.584 370.195 148.673 370.195 141.382C370.195 134.091 376.106 128.181 383.397 128.181ZM295.313 133.5C293.934 133.5 292.75 134.684 292.75 136.063V142.76C292.75 144.14 293.934 145.323 295.313 145.323H346.348C347.728 145.323 348.912 144.14 348.912 142.76V136.063C348.912 134.684 347.728 133.5 346.348 133.5H295.313ZM389.085 137.122C388.568 137.048 388.027 137.146 387.534 137.441C387.337 137.638 381.425 141.383 381.819 141.186C381.622 140.989 380.048 138.426 380.245 138.623C379.654 137.637 378.47 137.443 377.485 138.034C376.5 138.625 376.301 139.804 376.892 140.79L379.652 144.931C380.243 145.916 381.623 146.111 382.412 145.52L389.901 140.593C390.887 140.002 391.081 138.819 390.49 137.834C390.096 137.44 389.603 137.196 389.085 137.122ZM298.662 137.245C299.844 137.245 300.828 138.229 300.828 139.412C300.631 140.594 299.844 141.579 298.662 141.579C297.479 141.579 296.495 140.594 296.495 139.412C296.495 138.229 297.479 137.245 298.662 137.245ZM305.559 137.245C306.741 137.245 307.725 138.229 307.725 139.412C307.528 140.594 306.741 141.579 305.559 141.579C304.376 141.579 303.392 140.594 303.392 139.412C303.392 138.229 304.376 137.245 305.559 137.245ZM312.259 137.245C313.442 137.245 314.426 138.229 314.426 139.412C314.426 140.594 313.442 141.579 312.259 141.579C311.077 141.579 310.093 140.594 310.093 139.412C310.093 138.229 311.077 137.245 312.259 137.245ZM319.156 137.245C320.339 137.245 321.323 138.229 321.323 139.412C321.323 140.594 320.339 141.579 319.156 141.579C317.974 141.579 316.99 140.594 316.99 139.412C316.99 138.229 317.974 137.245 319.156 137.245ZM326.054 137.245C327.236 137.245 328.22 138.229 328.22 139.412C328.22 140.594 327.236 141.579 326.054 141.579C324.871 141.579 323.887 140.594 323.887 139.412C323.887 138.229 324.871 137.245 326.054 137.245Z" fill="white"/>
<defs>
<filter id="filter0_d_209_107" x="0" y="0" width="1062" height="241" filterUnits="userSpaceOnUse" color-interpolation-filters="sRGB">
<feFlood flood-opacity="0" result="BackgroundImageFix"/>
<feColorMatrix in="SourceAlpha" type="matrix" values="0 0 0 0 0 0 0 0 0 0 0 0 0 0 0 0 0 0 127 0" result="hardAlpha"/>
<feOffset dy="4"/>
<feGaussianBlur stdDeviation="2"/>
<feComposite in2="hardAlpha" operator="out"/>
<feColorMatrix type="matrix" values="0 0 0 0 0 0 0 0 0 0 0 0 0 0 0 0 0 0 0.25 0"/>
<feBlend mode="normal" in2="BackgroundImageFix" result="effect1_dropShadow_209_107"/>
<feBlend mode="normal" in="SourceGraphic" in2="effect1_dropShadow_209_107" result="shape"/>
</filter>
</defs>
</svg>
