<svg width="196" height="198" viewBox="0 0 196 198" fill="none" xmlns="http://www.w3.org/2000/svg">
<g filter="url(#filter0_d_178_149)">
<rect x="4" width="188" height="190" rx="42" fill="white"/>
</g>
<circle cx="98" cy="74" r="52" fill="#C985F1"/>
<path d="M77.961 161H69.981V146.72H77.961V148.3H71.781V152.76H77.601V154.32H71.781V159.42H77.961V161ZM83.3943 155.52L79.6943 150.28H81.6943L84.4543 154.32L87.1943 150.28H89.1743L85.4743 155.52L89.3743 161H87.3743L84.4543 156.72L81.4943 161H79.5143L83.3943 155.52ZM95.5002 150.1C96.8069 150.1 97.7736 150.387 98.4002 150.96C99.0269 151.533 99.3402 152.447 99.3402 153.7V161H98.0602L97.7202 159.48H97.6402C97.3336 159.867 97.0136 160.193 96.6802 160.46C96.3602 160.713 95.9869 160.9 95.5602 161.02C95.1469 161.14 94.6402 161.2 94.0402 161.2C93.4002 161.2 92.8202 161.087 92.3002 160.86C91.7936 160.633 91.3936 160.287 91.1002 159.82C90.8069 159.34 90.6602 158.74 90.6602 158.02C90.6602 156.953 91.0802 156.133 91.9202 155.56C92.7602 154.973 94.0536 154.653 95.8002 154.6L97.6202 154.54V153.9C97.6202 153.007 97.4269 152.387 97.0402 152.04C96.6536 151.693 96.1069 151.52 95.4002 151.52C94.8402 151.52 94.3069 151.607 93.8002 151.78C93.2936 151.94 92.8202 152.127 92.3802 152.34L91.8402 151.02C92.3069 150.767 92.8602 150.553 93.5002 150.38C94.1402 150.193 94.8069 150.1 95.5002 150.1ZM96.0202 155.82C94.6869 155.873 93.7602 156.087 93.2402 156.46C92.7336 156.833 92.4802 157.36 92.4802 158.04C92.4802 158.64 92.6602 159.08 93.0202 159.36C93.3936 159.64 93.8669 159.78 94.4402 159.78C95.3469 159.78 96.1002 159.533 96.7002 159.04C97.3002 158.533 97.6002 157.76 97.6002 156.72V155.76L96.0202 155.82ZM106.231 159.76C106.498 159.76 106.771 159.74 107.051 159.7C107.331 159.647 107.558 159.593 107.731 159.54V160.88C107.545 160.973 107.278 161.047 106.931 161.1C106.585 161.167 106.251 161.2 105.931 161.2C105.371 161.2 104.851 161.107 104.371 160.92C103.905 160.72 103.525 160.38 103.231 159.9C102.938 159.42 102.791 158.747 102.791 157.88V151.64H101.271V150.8L102.811 150.1L103.511 147.82H104.551V150.28H107.651V151.64H104.551V157.84C104.551 158.493 104.705 158.98 105.011 159.3C105.331 159.607 105.738 159.76 106.231 159.76ZM113.938 150.1C115.244 150.1 116.211 150.387 116.838 150.96C117.464 151.533 117.778 152.447 117.778 153.7V161H116.498L116.158 159.48H116.078C115.771 159.867 115.451 160.193 115.118 160.46C114.798 160.713 114.424 160.9 113.998 161.02C113.584 161.14 113.078 161.2 112.478 161.2C111.838 161.2 111.258 161.087 110.738 160.86C110.231 160.633 109.831 160.287 109.538 159.82C109.244 159.34 109.098 158.74 109.098 158.02C109.098 156.953 109.518 156.133 110.358 155.56C111.198 154.973 112.491 154.653 114.238 154.6L116.058 154.54V153.9C116.058 153.007 115.864 152.387 115.478 152.04C115.091 151.693 114.544 151.52 113.838 151.52C113.278 151.52 112.744 151.607 112.238 151.78C111.731 151.94 111.258 152.127 110.818 152.34L110.278 151.02C110.744 150.767 111.298 150.553 111.938 150.38C112.578 150.193 113.244 150.1 113.938 150.1ZM114.458 155.82C113.124 155.873 112.198 156.087 111.678 156.46C111.171 156.833 110.918 157.36 110.918 158.04C110.918 158.64 111.098 159.08 111.458 159.36C111.831 159.64 112.304 159.78 112.878 159.78C113.784 159.78 114.538 159.533 115.138 159.04C115.738 158.533 116.038 157.76 116.038 156.72V155.76L114.458 155.82ZM128.069 158.04C128.069 158.733 127.895 159.313 127.549 159.78C127.202 160.247 126.709 160.6 126.069 160.84C125.429 161.08 124.669 161.2 123.789 161.2C123.042 161.2 122.395 161.14 121.849 161.02C121.315 160.9 120.842 160.733 120.429 160.52V158.92C120.855 159.133 121.369 159.333 121.969 159.52C122.582 159.693 123.202 159.78 123.829 159.78C124.722 159.78 125.369 159.64 125.769 159.36C126.169 159.067 126.369 158.68 126.369 158.2C126.369 157.933 126.295 157.693 126.149 157.48C126.002 157.267 125.735 157.053 125.349 156.84C124.975 156.627 124.435 156.387 123.729 156.12C123.035 155.853 122.442 155.587 121.949 155.32C121.455 155.053 121.075 154.733 120.809 154.36C120.542 153.987 120.409 153.507 120.409 152.92C120.409 152.013 120.775 151.313 121.509 150.82C122.255 150.327 123.229 150.08 124.429 150.08C125.082 150.08 125.689 150.147 126.249 150.28C126.822 150.4 127.355 150.573 127.849 150.8L127.249 152.2C126.955 152.067 126.642 151.953 126.309 151.86C125.989 151.753 125.662 151.673 125.329 151.62C124.995 151.553 124.655 151.52 124.309 151.52C123.589 151.52 123.035 151.64 122.649 151.88C122.275 152.107 122.089 152.42 122.089 152.82C122.089 153.113 122.175 153.367 122.349 153.58C122.522 153.78 122.809 153.98 123.209 154.18C123.622 154.367 124.169 154.593 124.849 154.86C125.529 155.113 126.109 155.373 126.589 155.64C127.069 155.907 127.435 156.233 127.689 156.62C127.942 156.993 128.069 157.467 128.069 158.04Z" fill="black"/>
<path d="M128.833 65.49L106.664 63.5783L98.0001 43.1667L89.3359 63.6092L67.1667 65.49L84.0017 80.0742L78.9451 101.75L98.0001 90.2492L117.055 101.75L112.029 80.0742L128.833 65.49ZM98.0001 84.4833V55.8083L103.273 68.265L116.778 69.4367L106.541 78.3167L109.624 91.5133L98.0001 84.4833Z" fill="white"/>
<defs>
<filter id="filter0_d_178_149" x="0" y="0" width="196" height="198" filterUnits="userSpaceOnUse" color-interpolation-filters="sRGB">
<feFlood flood-opacity="0" result="BackgroundImageFix"/>
<feColorMatrix in="SourceAlpha" type="matrix" values="0 0 0 0 0 0 0 0 0 0 0 0 0 0 0 0 0 0 127 0" result="hardAlpha"/>
<feOffset dy="4"/>
<feGaussianBlur stdDeviation="2"/>
<feComposite in2="hardAlpha" operator="out"/>
<feColorMatrix type="matrix" values="0 0 0 0 0 0 0 0 0 0 0 0 0 0 0 0 0 0 0.25 0"/>
<feBlend mode="normal" in2="BackgroundImageFix" result="effect1_dropShadow_178_149"/>
<feBlend mode="normal" in="SourceGraphic" in2="effect1_dropShadow_178_149" result="shape"/>
</filter>
</defs>
</svg>
