<svg width="196" height="198" viewBox="0 0 196 198" fill="none" xmlns="http://www.w3.org/2000/svg">
<g filter="url(#filter0_d_178_148)">
<rect x="4" width="188" height="190" rx="42" fill="white"/>
</g>
<circle cx="98" cy="74" r="52" fill="#575756"/>
<path d="M49.3165 161H41.3365V146.72H49.3165V148.3H43.1365V152.76H48.9565V154.32H43.1365V159.42H49.3165V161ZM57.3698 150.08C58.6498 150.08 59.6164 150.393 60.2698 151.02C60.9231 151.633 61.2498 152.633 61.2498 154.02V161H59.5098V154.14C59.5098 153.273 59.3164 152.627 58.9298 152.2C58.5431 151.773 57.9364 151.56 57.1098 151.56C55.9231 151.56 55.1031 151.893 54.6498 152.56C54.1964 153.227 53.9698 154.187 53.9698 155.44V161H52.2098V150.28H53.6298L53.8898 151.74H53.9898C54.2298 151.367 54.5231 151.06 54.8698 150.82C55.2298 150.567 55.6231 150.38 56.0498 150.26C56.4764 150.14 56.9164 150.08 57.3698 150.08ZM68.373 150.08C69.0797 150.08 69.713 150.213 70.273 150.48C70.8464 150.747 71.333 151.153 71.733 151.7H71.833L72.073 150.28H73.473V161.18C73.473 162.193 73.2997 163.04 72.953 163.72C72.6064 164.413 72.0797 164.933 71.373 165.28C70.6664 165.627 69.7664 165.8 68.673 165.8C67.8997 165.8 67.1864 165.74 66.533 165.62C65.893 165.513 65.3197 165.347 64.813 165.12V163.5C65.1597 163.673 65.5397 163.82 65.953 163.94C66.3664 164.073 66.813 164.173 67.293 164.24C67.773 164.307 68.2664 164.34 68.773 164.34C69.693 164.34 70.413 164.067 70.933 163.52C71.4664 162.987 71.733 162.253 71.733 161.32V160.9C71.733 160.74 71.7397 160.513 71.753 160.22C71.7664 159.913 71.7797 159.7 71.793 159.58H71.713C71.3397 160.127 70.873 160.533 70.313 160.8C69.7664 161.067 69.1264 161.2 68.393 161.2C67.0064 161.2 65.9197 160.713 65.133 159.74C64.3597 158.767 63.973 157.407 63.973 155.66C63.973 154.513 64.1464 153.527 64.493 152.7C64.853 151.86 65.3597 151.213 66.013 150.76C66.6664 150.307 67.453 150.08 68.373 150.08ZM68.613 151.56C68.013 151.56 67.4997 151.72 67.073 152.04C66.6597 152.36 66.3397 152.827 66.113 153.44C65.8997 154.053 65.793 154.8 65.793 155.68C65.793 157 66.033 158.013 66.513 158.72C67.0064 159.413 67.7197 159.76 68.653 159.76C69.1997 159.76 69.6664 159.693 70.053 159.56C70.4397 159.413 70.7597 159.193 71.013 158.9C71.2664 158.593 71.453 158.207 71.573 157.74C71.693 157.273 71.753 156.72 71.753 156.08V155.66C71.753 154.687 71.6397 153.9 71.413 153.3C71.1997 152.7 70.8597 152.26 70.393 151.98C69.9264 151.7 69.333 151.56 68.613 151.56ZM81.0177 150.08C81.9377 150.08 82.7244 150.28 83.3777 150.68C84.0444 151.08 84.5511 151.647 84.8977 152.38C85.2577 153.1 85.4377 153.947 85.4377 154.92V155.98H78.0977C78.1244 157.193 78.4311 158.12 79.0177 158.76C79.6177 159.387 80.4511 159.7 81.5177 159.7C82.1977 159.7 82.7977 159.64 83.3177 159.52C83.8511 159.387 84.3977 159.2 84.9577 158.96V160.5C84.4111 160.74 83.8711 160.913 83.3377 161.02C82.8044 161.14 82.1711 161.2 81.4377 161.2C80.4244 161.2 79.5244 160.993 78.7377 160.58C77.9644 160.167 77.3577 159.553 76.9177 158.74C76.4911 157.913 76.2777 156.907 76.2777 155.72C76.2777 154.547 76.4711 153.54 76.8577 152.7C77.2577 151.86 77.8111 151.213 78.5177 150.76C79.2377 150.307 80.0711 150.08 81.0177 150.08ZM80.9977 151.52C80.1577 151.52 79.4911 151.793 78.9977 152.34C78.5177 152.873 78.2311 153.62 78.1377 154.58H83.5977C83.5977 153.967 83.5044 153.433 83.3177 152.98C83.1311 152.527 82.8444 152.173 82.4577 151.92C82.0844 151.653 81.5977 151.52 80.9977 151.52ZM93.3268 150.08C94.6068 150.08 95.5735 150.393 96.2268 151.02C96.8801 151.633 97.2068 152.633 97.2068 154.02V161H95.4668V154.14C95.4668 153.273 95.2735 152.627 94.8868 152.2C94.5001 151.773 93.8935 151.56 93.0668 151.56C91.8801 151.56 91.0601 151.893 90.6068 152.56C90.1535 153.227 89.9268 154.187 89.9268 155.44V161H88.1668V150.28H89.5868L89.8468 151.74H89.9468C90.1868 151.367 90.4801 151.06 90.8268 150.82C91.1868 150.567 91.5801 150.38 92.0068 150.26C92.4335 150.14 92.8735 150.08 93.3268 150.08ZM102.29 150.26C102.29 150.513 102.277 150.773 102.25 151.04C102.237 151.307 102.217 151.547 102.19 151.76H102.31C102.537 151.387 102.823 151.08 103.17 150.84C103.517 150.6 103.903 150.42 104.33 150.3C104.757 150.167 105.197 150.1 105.65 150.1C106.517 150.1 107.237 150.24 107.81 150.52C108.397 150.787 108.837 151.207 109.13 151.78C109.423 152.353 109.57 153.1 109.57 154.02V161H107.83V154.14C107.83 153.273 107.637 152.627 107.25 152.2C106.863 151.773 106.257 151.56 105.43 151.56C104.63 151.56 104.003 151.713 103.55 152.02C103.097 152.313 102.77 152.753 102.57 153.34C102.383 153.913 102.29 154.62 102.29 155.46V161H100.53V145.8H102.29V150.26ZM116.953 150.1C118.26 150.1 119.227 150.387 119.853 150.96C120.48 151.533 120.793 152.447 120.793 153.7V161H119.513L119.173 159.48H119.093C118.787 159.867 118.467 160.193 118.133 160.46C117.813 160.713 117.44 160.9 117.013 161.02C116.6 161.14 116.093 161.2 115.493 161.2C114.853 161.2 114.273 161.087 113.753 160.86C113.247 160.633 112.847 160.287 112.553 159.82C112.26 159.34 112.113 158.74 112.113 158.02C112.113 156.953 112.533 156.133 113.373 155.56C114.213 154.973 115.507 154.653 117.253 154.6L119.073 154.54V153.9C119.073 153.007 118.88 152.387 118.493 152.04C118.107 151.693 117.56 151.52 116.853 151.52C116.293 151.52 115.76 151.607 115.253 151.78C114.747 151.94 114.273 152.127 113.833 152.34L113.293 151.02C113.76 150.767 114.313 150.553 114.953 150.38C115.593 150.193 116.26 150.1 116.953 150.1ZM117.473 155.82C116.14 155.873 115.213 156.087 114.693 156.46C114.187 156.833 113.933 157.36 113.933 158.04C113.933 158.64 114.113 159.08 114.473 159.36C114.847 159.64 115.32 159.78 115.893 159.78C116.8 159.78 117.553 159.533 118.153 159.04C118.753 158.533 119.053 157.76 119.053 156.72V155.76L117.473 155.82ZM129.104 150.08C129.304 150.08 129.518 150.093 129.744 150.12C129.984 150.133 130.191 150.16 130.364 150.2L130.144 151.82C129.971 151.78 129.778 151.747 129.564 151.72C129.364 151.693 129.171 151.68 128.984 151.68C128.571 151.68 128.178 151.767 127.804 151.94C127.431 152.113 127.098 152.36 126.804 152.68C126.511 152.987 126.278 153.36 126.104 153.8C125.944 154.24 125.864 154.733 125.864 155.28V161H124.104V150.28H125.544L125.744 152.24H125.824C126.051 151.84 126.324 151.48 126.644 151.16C126.964 150.827 127.331 150.567 127.744 150.38C128.158 150.18 128.611 150.08 129.104 150.08ZM134.126 150.28V161H132.366V150.28H134.126ZM133.266 146.26C133.533 146.26 133.766 146.353 133.966 146.54C134.179 146.713 134.286 146.993 134.286 147.38C134.286 147.753 134.179 148.033 133.966 148.22C133.766 148.407 133.533 148.5 133.266 148.5C132.973 148.5 132.726 148.407 132.526 148.22C132.326 148.033 132.226 147.753 132.226 147.38C132.226 146.993 132.326 146.713 132.526 146.54C132.726 146.353 132.973 146.26 133.266 146.26ZM141.582 150.1C142.889 150.1 143.856 150.387 144.482 150.96C145.109 151.533 145.422 152.447 145.422 153.7V161H144.142L143.802 159.48H143.722C143.416 159.867 143.096 160.193 142.762 160.46C142.442 160.713 142.069 160.9 141.642 161.02C141.229 161.14 140.722 161.2 140.122 161.2C139.482 161.2 138.902 161.087 138.382 160.86C137.876 160.633 137.476 160.287 137.182 159.82C136.889 159.34 136.742 158.74 136.742 158.02C136.742 156.953 137.162 156.133 138.002 155.56C138.842 154.973 140.136 154.653 141.882 154.6L143.702 154.54V153.9C143.702 153.007 143.509 152.387 143.122 152.04C142.736 151.693 142.189 151.52 141.482 151.52C140.922 151.52 140.389 151.607 139.882 151.78C139.376 151.94 138.902 152.127 138.462 152.34L137.922 151.02C138.389 150.767 138.942 150.553 139.582 150.38C140.222 150.193 140.889 150.1 141.582 150.1ZM142.102 155.82C140.769 155.873 139.842 156.087 139.322 156.46C138.816 156.833 138.562 157.36 138.562 158.04C138.562 158.64 138.742 159.08 139.102 159.36C139.476 159.64 139.949 159.78 140.522 159.78C141.429 159.78 142.182 159.533 142.782 159.04C143.382 158.533 143.682 157.76 143.682 156.72V155.76L142.102 155.82ZM155.713 158.04C155.713 158.733 155.54 159.313 155.193 159.78C154.847 160.247 154.353 160.6 153.713 160.84C153.073 161.08 152.313 161.2 151.433 161.2C150.687 161.2 150.04 161.14 149.493 161.02C148.96 160.9 148.487 160.733 148.073 160.52V158.92C148.5 159.133 149.013 159.333 149.613 159.52C150.227 159.693 150.847 159.78 151.473 159.78C152.367 159.78 153.013 159.64 153.413 159.36C153.813 159.067 154.013 158.68 154.013 158.2C154.013 157.933 153.94 157.693 153.793 157.48C153.647 157.267 153.38 157.053 152.993 156.84C152.62 156.627 152.08 156.387 151.373 156.12C150.68 155.853 150.087 155.587 149.593 155.32C149.1 155.053 148.72 154.733 148.453 154.36C148.187 153.987 148.053 153.507 148.053 152.92C148.053 152.013 148.42 151.313 149.153 150.82C149.9 150.327 150.873 150.08 152.073 150.08C152.727 150.08 153.333 150.147 153.893 150.28C154.467 150.4 155 150.573 155.493 150.8L154.893 152.2C154.6 152.067 154.287 151.953 153.953 151.86C153.633 151.753 153.307 151.673 152.973 151.62C152.64 151.553 152.3 151.52 151.953 151.52C151.233 151.52 150.68 151.64 150.293 151.88C149.92 152.107 149.733 152.42 149.733 152.82C149.733 153.113 149.82 153.367 149.993 153.58C150.167 153.78 150.453 153.98 150.853 154.18C151.267 154.367 151.813 154.593 152.493 154.86C153.173 155.113 153.753 155.373 154.233 155.64C154.713 155.907 155.08 156.233 155.333 156.62C155.587 156.993 155.713 157.467 155.713 158.04Z" fill="black"/>
<path d="M128.833 65.49L106.664 63.5783L97.9998 43.1667L89.3357 63.6092L67.1665 65.49L84.0015 80.0742L78.9448 101.75L97.9998 90.2492L117.055 101.75L112.029 80.0742L128.833 65.49ZM97.9998 84.4833V55.8083L103.272 68.265L116.777 69.4367L106.541 78.3167L109.624 91.5133L97.9998 84.4833Z" fill="white"/>
<defs>
<filter id="filter0_d_178_148" x="0" y="0" width="196" height="198" filterUnits="userSpaceOnUse" color-interpolation-filters="sRGB">
<feFlood flood-opacity="0" result="BackgroundImageFix"/>
<feColorMatrix in="SourceAlpha" type="matrix" values="0 0 0 0 0 0 0 0 0 0 0 0 0 0 0 0 0 0 127 0" result="hardAlpha"/>
<feOffset dy="4"/>
<feGaussianBlur stdDeviation="2"/>
<feComposite in2="hardAlpha" operator="out"/>
<feColorMatrix type="matrix" values="0 0 0 0 0 0 0 0 0 0 0 0 0 0 0 0 0 0 0.25 0"/>
<feBlend mode="normal" in2="BackgroundImageFix" result="effect1_dropShadow_178_148"/>
<feBlend mode="normal" in="SourceGraphic" in2="effect1_dropShadow_178_148" result="shape"/>
</filter>
</defs>
</svg>
