<svg width="196" height="198" viewBox="0 0 196 198" fill="none" xmlns="http://www.w3.org/2000/svg">
<g filter="url(#filter0_d_178_153)">
<rect x="4" width="188" height="190" rx="42" fill="white"/>
</g>
<path d="M66.2428 161H64.4428V154.34H57.1228V161H55.3228V146.72H57.1228V152.76H64.4428V146.72H66.2428V161ZM78.867 150.28V161H77.427L77.167 159.58H77.087C76.8604 159.953 76.567 160.26 76.207 160.5C75.847 160.74 75.4537 160.913 75.027 161.02C74.6004 161.14 74.1537 161.2 73.687 161.2C72.8337 161.2 72.1137 161.067 71.527 160.8C70.9537 160.52 70.5204 160.093 70.227 159.52C69.9337 158.947 69.787 158.207 69.787 157.3V150.28H71.567V157.18C71.567 158.033 71.7604 158.673 72.147 159.1C72.5337 159.527 73.1337 159.74 73.947 159.74C74.747 159.74 75.3737 159.593 75.827 159.3C76.2937 158.993 76.6204 158.553 76.807 157.98C77.007 157.393 77.107 156.687 77.107 155.86V150.28H78.867ZM94.0303 150.08C95.2436 150.08 96.1503 150.393 96.7503 151.02C97.3503 151.633 97.6503 152.633 97.6503 154.02V161H95.9103V154.1C95.9103 153.26 95.7303 152.627 95.3703 152.2C95.0236 151.773 94.477 151.56 93.7303 151.56C92.6903 151.56 91.9436 151.86 91.4903 152.46C91.0503 153.06 90.8303 153.933 90.8303 155.08V161H89.0903V154.1C89.0903 153.54 89.0103 153.073 88.8503 152.7C88.6903 152.313 88.4503 152.027 88.1303 151.84C87.8103 151.653 87.397 151.56 86.8903 151.56C86.1703 151.56 85.6036 151.713 85.1903 152.02C84.777 152.313 84.477 152.747 84.2903 153.32C84.117 153.893 84.0303 154.6 84.0303 155.44V161H82.2703V150.28H83.6903L83.9503 151.74H84.0503C84.277 151.367 84.5503 151.06 84.8703 150.82C85.2036 150.567 85.5703 150.38 85.9703 150.26C86.3703 150.14 86.7836 150.08 87.2103 150.08C88.037 150.08 88.7236 150.227 89.2703 150.52C89.8303 150.813 90.237 151.267 90.4903 151.88H90.5903C90.9503 151.267 91.437 150.813 92.0503 150.52C92.677 150.227 93.337 150.08 94.0303 150.08ZM105.022 150.1C106.328 150.1 107.295 150.387 107.922 150.96C108.548 151.533 108.862 152.447 108.862 153.7V161H107.582L107.242 159.48H107.162C106.855 159.867 106.535 160.193 106.202 160.46C105.882 160.713 105.508 160.9 105.082 161.02C104.668 161.14 104.162 161.2 103.562 161.2C102.922 161.2 102.342 161.087 101.822 160.86C101.315 160.633 100.915 160.287 100.622 159.82C100.328 159.34 100.182 158.74 100.182 158.02C100.182 156.953 100.602 156.133 101.442 155.56C102.282 154.973 103.575 154.653 105.322 154.6L107.142 154.54V153.9C107.142 153.007 106.948 152.387 106.562 152.04C106.175 151.693 105.628 151.52 104.922 151.52C104.362 151.52 103.828 151.607 103.322 151.78C102.815 151.94 102.342 152.127 101.902 152.34L101.362 151.02C101.828 150.767 102.382 150.553 103.022 150.38C103.662 150.193 104.328 150.1 105.022 150.1ZM105.542 155.82C104.208 155.873 103.282 156.087 102.762 156.46C102.255 156.833 102.002 157.36 102.002 158.04C102.002 158.64 102.182 159.08 102.542 159.36C102.915 159.64 103.388 159.78 103.962 159.78C104.868 159.78 105.622 159.533 106.222 159.04C106.822 158.533 107.122 157.76 107.122 156.72V155.76L105.542 155.82ZM117.333 150.08C118.613 150.08 119.579 150.393 120.233 151.02C120.886 151.633 121.213 152.633 121.213 154.02V161H119.473V154.14C119.473 153.273 119.279 152.627 118.893 152.2C118.506 151.773 117.899 151.56 117.073 151.56C115.886 151.56 115.066 151.893 114.613 152.56C114.159 153.227 113.933 154.187 113.933 155.44V161H112.173V150.28H113.593L113.853 151.74H113.953C114.193 151.367 114.486 151.06 114.833 150.82C115.193 150.567 115.586 150.38 116.013 150.26C116.439 150.14 116.879 150.08 117.333 150.08ZM128.596 150.1C129.903 150.1 130.869 150.387 131.496 150.96C132.123 151.533 132.436 152.447 132.436 153.7V161H131.156L130.816 159.48H130.736C130.429 159.867 130.109 160.193 129.776 160.46C129.456 160.713 129.083 160.9 128.656 161.02C128.243 161.14 127.736 161.2 127.136 161.2C126.496 161.2 125.916 161.087 125.396 160.86C124.889 160.633 124.489 160.287 124.196 159.82C123.903 159.34 123.756 158.74 123.756 158.02C123.756 156.953 124.176 156.133 125.016 155.56C125.856 154.973 127.149 154.653 128.896 154.6L130.716 154.54V153.9C130.716 153.007 130.523 152.387 130.136 152.04C129.749 151.693 129.203 151.52 128.496 151.52C127.936 151.52 127.403 151.607 126.896 151.78C126.389 151.94 125.916 152.127 125.476 152.34L124.936 151.02C125.403 150.767 125.956 150.553 126.596 150.38C127.236 150.193 127.903 150.1 128.596 150.1ZM129.116 155.82C127.783 155.873 126.856 156.087 126.336 156.46C125.829 156.833 125.576 157.36 125.576 158.04C125.576 158.64 125.756 159.08 126.116 159.36C126.489 159.64 126.963 159.78 127.536 159.78C128.443 159.78 129.196 159.533 129.796 159.04C130.396 158.533 130.696 157.76 130.696 156.72V155.76L129.116 155.82ZM142.727 158.04C142.727 158.733 142.554 159.313 142.207 159.78C141.86 160.247 141.367 160.6 140.727 160.84C140.087 161.08 139.327 161.2 138.447 161.2C137.7 161.2 137.054 161.14 136.507 161.02C135.974 160.9 135.5 160.733 135.087 160.52V158.92C135.514 159.133 136.027 159.333 136.627 159.52C137.24 159.693 137.86 159.78 138.487 159.78C139.38 159.78 140.027 159.64 140.427 159.36C140.827 159.067 141.027 158.68 141.027 158.2C141.027 157.933 140.954 157.693 140.807 157.48C140.66 157.267 140.394 157.053 140.007 156.84C139.634 156.627 139.094 156.387 138.387 156.12C137.694 155.853 137.1 155.587 136.607 155.32C136.114 155.053 135.734 154.733 135.467 154.36C135.2 153.987 135.067 153.507 135.067 152.92C135.067 152.013 135.434 151.313 136.167 150.82C136.914 150.327 137.887 150.08 139.087 150.08C139.74 150.08 140.347 150.147 140.907 150.28C141.48 150.4 142.014 150.573 142.507 150.8L141.907 152.2C141.614 152.067 141.3 151.953 140.967 151.86C140.647 151.753 140.32 151.673 139.987 151.62C139.654 151.553 139.314 151.52 138.967 151.52C138.247 151.52 137.694 151.64 137.307 151.88C136.934 152.107 136.747 152.42 136.747 152.82C136.747 153.113 136.834 153.367 137.007 153.58C137.18 153.78 137.467 153.98 137.867 154.18C138.28 154.367 138.827 154.593 139.507 154.86C140.187 155.113 140.767 155.373 141.247 155.64C141.727 155.907 142.094 156.233 142.347 156.62C142.6 156.993 142.727 157.467 142.727 158.04Z" fill="black"/>
<circle cx="98" cy="71" r="52" fill="#C985F1"/>
<path d="M128.833 62.49L106.664 60.5784L97.9998 40.1667L89.3357 60.6092L67.1665 62.49L84.0015 77.0742L78.9448 98.75L97.9998 87.2492L117.055 98.75L112.029 77.0742L128.833 62.49ZM97.9998 81.4834V52.8084L103.272 65.265L116.777 66.4367L106.541 75.3167L109.624 88.5134L97.9998 81.4834Z" fill="white"/>
<defs>
<filter id="filter0_d_178_153" x="0" y="0" width="196" height="198" filterUnits="userSpaceOnUse" color-interpolation-filters="sRGB">
<feFlood flood-opacity="0" result="BackgroundImageFix"/>
<feColorMatrix in="SourceAlpha" type="matrix" values="0 0 0 0 0 0 0 0 0 0 0 0 0 0 0 0 0 0 127 0" result="hardAlpha"/>
<feOffset dy="4"/>
<feGaussianBlur stdDeviation="2"/>
<feComposite in2="hardAlpha" operator="out"/>
<feColorMatrix type="matrix" values="0 0 0 0 0 0 0 0 0 0 0 0 0 0 0 0 0 0 0.25 0"/>
<feBlend mode="normal" in2="BackgroundImageFix" result="effect1_dropShadow_178_153"/>
<feBlend mode="normal" in="SourceGraphic" in2="effect1_dropShadow_178_153" result="shape"/>
</filter>
</defs>
</svg>
