<svg width="196" height="198" viewBox="0 0 196 198" fill="none" xmlns="http://www.w3.org/2000/svg">
<g filter="url(#filter0_d_178_155)">
<rect x="4" width="188" height="190" rx="42" fill="white"/>
</g>
<circle cx="98" cy="74" r="52" fill="#575756"/>
<path d="M56.3247 146.72C57.5114 146.72 58.5047 146.833 59.3047 147.06C60.118 147.287 60.7247 147.66 61.1247 148.18C61.538 148.7 61.7447 149.393 61.7447 150.26C61.7447 150.82 61.638 151.32 61.4247 151.76C61.2247 152.187 60.918 152.547 60.5047 152.84C60.1047 153.12 59.6114 153.313 59.0247 153.42V153.52C59.6247 153.613 60.1647 153.787 60.6447 154.04C61.138 154.293 61.5247 154.653 61.8047 155.12C62.0847 155.587 62.2247 156.193 62.2247 156.94C62.2247 157.807 62.0247 158.547 61.6247 159.16C61.2247 159.76 60.6514 160.22 59.9047 160.54C59.1714 160.847 58.2914 161 57.2647 161H52.2447V146.72H56.3247ZM56.6847 152.8C57.9114 152.8 58.7514 152.607 59.2047 152.22C59.658 151.82 59.8847 151.233 59.8847 150.46C59.8847 149.673 59.6047 149.113 59.0447 148.78C58.498 148.433 57.618 148.26 56.4047 148.26H54.0447V152.8H56.6847ZM54.0447 154.3V159.48H56.9247C58.1914 159.48 59.0714 159.233 59.5647 158.74C60.058 158.247 60.3047 157.6 60.3047 156.8C60.3047 156.293 60.1914 155.853 59.9647 155.48C59.7514 155.107 59.3847 154.82 58.8647 154.62C58.358 154.407 57.6647 154.3 56.7847 154.3H54.0447ZM66.7725 150.28V161H65.0125V150.28H66.7725ZM65.9125 146.26C66.1792 146.26 66.4125 146.353 66.6125 146.54C66.8258 146.713 66.9325 146.993 66.9325 147.38C66.9325 147.753 66.8258 148.033 66.6125 148.22C66.4125 148.407 66.1792 148.5 65.9125 148.5C65.6192 148.5 65.3725 148.407 65.1725 148.22C64.9725 148.033 64.8725 147.753 64.8725 147.38C64.8725 146.993 64.9725 146.713 65.1725 146.54C65.3725 146.353 65.6192 146.26 65.9125 146.26ZM79.4887 155.62C79.4887 156.513 79.3688 157.307 79.1288 158C78.9021 158.68 78.5688 159.26 78.1288 159.74C77.7021 160.22 77.1754 160.587 76.5488 160.84C75.9354 161.08 75.2488 161.2 74.4888 161.2C73.7821 161.2 73.1288 161.08 72.5288 160.84C71.9288 160.587 71.4088 160.22 70.9688 159.74C70.5288 159.26 70.1821 158.68 69.9288 158C69.6888 157.307 69.5688 156.513 69.5688 155.62C69.5688 154.433 69.7688 153.433 70.1688 152.62C70.5688 151.793 71.1421 151.167 71.8888 150.74C72.6354 150.3 73.5221 150.08 74.5488 150.08C75.5221 150.08 76.3754 150.3 77.1088 150.74C77.8554 151.167 78.4354 151.793 78.8488 152.62C79.2754 153.433 79.4887 154.433 79.4887 155.62ZM71.3888 155.62C71.3888 156.46 71.4954 157.193 71.7088 157.82C71.9354 158.433 72.2821 158.907 72.7488 159.24C73.2154 159.573 73.8088 159.74 74.5288 159.74C75.2488 159.74 75.8421 159.573 76.3088 159.24C76.7754 158.907 77.1154 158.433 77.3288 157.82C77.5554 157.193 77.6688 156.46 77.6688 155.62C77.6688 154.767 77.5554 154.04 77.3288 153.44C77.1021 152.84 76.7554 152.38 76.2888 152.06C75.8354 151.727 75.2421 151.56 74.5088 151.56C73.4154 151.56 72.6221 151.92 72.1288 152.64C71.6354 153.36 71.3888 154.353 71.3888 155.62ZM84.0381 161H82.2781V145.8H84.0381V161ZM96.7544 155.62C96.7544 156.513 96.6344 157.307 96.3944 158C96.1677 158.68 95.8344 159.26 95.3944 159.74C94.9677 160.22 94.441 160.587 93.8144 160.84C93.201 161.08 92.5144 161.2 91.7544 161.2C91.0477 161.2 90.3944 161.08 89.7944 160.84C89.1944 160.587 88.6744 160.22 88.2344 159.74C87.7944 159.26 87.4477 158.68 87.1944 158C86.9544 157.307 86.8344 156.513 86.8344 155.62C86.8344 154.433 87.0344 153.433 87.4344 152.62C87.8344 151.793 88.4077 151.167 89.1544 150.74C89.901 150.3 90.7877 150.08 91.8144 150.08C92.7877 150.08 93.641 150.3 94.3744 150.74C95.121 151.167 95.701 151.793 96.1144 152.62C96.541 153.433 96.7544 154.433 96.7544 155.62ZM88.6544 155.62C88.6544 156.46 88.761 157.193 88.9744 157.82C89.201 158.433 89.5477 158.907 90.0144 159.24C90.481 159.573 91.0744 159.74 91.7944 159.74C92.5144 159.74 93.1077 159.573 93.5744 159.24C94.041 158.907 94.381 158.433 94.5944 157.82C94.821 157.193 94.9344 156.46 94.9344 155.62C94.9344 154.767 94.821 154.04 94.5944 153.44C94.3677 152.84 94.021 152.38 93.5544 152.06C93.101 151.727 92.5077 151.56 91.7744 151.56C90.681 151.56 89.8877 151.92 89.3944 152.64C88.901 153.36 88.6544 154.353 88.6544 155.62ZM103.344 150.08C104.05 150.08 104.684 150.213 105.244 150.48C105.817 150.747 106.304 151.153 106.704 151.7H106.804L107.044 150.28H108.444V161.18C108.444 162.193 108.27 163.04 107.924 163.72C107.577 164.413 107.05 164.933 106.344 165.28C105.637 165.627 104.737 165.8 103.644 165.8C102.87 165.8 102.157 165.74 101.504 165.62C100.864 165.513 100.29 165.347 99.7838 165.12V163.5C100.13 163.673 100.51 163.82 100.924 163.94C101.337 164.073 101.784 164.173 102.264 164.24C102.744 164.307 103.237 164.34 103.744 164.34C104.664 164.34 105.384 164.067 105.904 163.52C106.437 162.987 106.704 162.253 106.704 161.32V160.9C106.704 160.74 106.71 160.513 106.724 160.22C106.737 159.913 106.75 159.7 106.764 159.58H106.684C106.31 160.127 105.844 160.533 105.284 160.8C104.737 161.067 104.097 161.2 103.364 161.2C101.977 161.2 100.89 160.713 100.104 159.74C99.3304 158.767 98.9438 157.407 98.9438 155.66C98.9438 154.513 99.1171 153.527 99.4638 152.7C99.8238 151.86 100.33 151.213 100.984 150.76C101.637 150.307 102.424 150.08 103.344 150.08ZM103.584 151.56C102.984 151.56 102.47 151.72 102.044 152.04C101.63 152.36 101.31 152.827 101.084 153.44C100.87 154.053 100.764 154.8 100.764 155.68C100.764 157 101.004 158.013 101.484 158.72C101.977 159.413 102.69 159.76 103.624 159.76C104.17 159.76 104.637 159.693 105.024 159.56C105.41 159.413 105.73 159.193 105.984 158.9C106.237 158.593 106.424 158.207 106.544 157.74C106.664 157.273 106.724 156.72 106.724 156.08V155.66C106.724 154.687 106.61 153.9 106.384 153.3C106.17 152.7 105.83 152.26 105.364 151.98C104.897 151.7 104.304 151.56 103.584 151.56ZM113.608 150.28V161H111.848V150.28H113.608ZM112.748 146.26C113.015 146.26 113.248 146.353 113.448 146.54C113.662 146.713 113.768 146.993 113.768 147.38C113.768 147.753 113.662 148.033 113.448 148.22C113.248 148.407 113.015 148.5 112.748 148.5C112.455 148.5 112.208 148.407 112.008 148.22C111.808 148.033 111.708 147.753 111.708 147.38C111.708 146.993 111.808 146.713 112.008 146.54C112.208 146.353 112.455 146.26 112.748 146.26ZM121.305 161.2C120.358 161.2 119.511 161.007 118.765 160.62C118.031 160.233 117.451 159.633 117.025 158.82C116.611 158.007 116.405 156.967 116.405 155.7C116.405 154.38 116.625 153.307 117.065 152.48C117.505 151.653 118.098 151.047 118.845 150.66C119.605 150.273 120.465 150.08 121.425 150.08C121.971 150.08 122.498 150.14 123.005 150.26C123.511 150.367 123.925 150.5 124.245 150.66L123.705 152.12C123.385 152 123.011 151.887 122.585 151.78C122.158 151.673 121.758 151.62 121.385 151.62C120.665 151.62 120.071 151.773 119.605 152.08C119.138 152.387 118.791 152.84 118.565 153.44C118.338 154.04 118.225 154.787 118.225 155.68C118.225 156.533 118.338 157.26 118.565 157.86C118.791 158.46 119.131 158.913 119.585 159.22C120.038 159.527 120.605 159.68 121.285 159.68C121.871 159.68 122.385 159.62 122.825 159.5C123.278 159.38 123.691 159.233 124.065 159.06V160.62C123.705 160.807 123.305 160.947 122.865 161.04C122.438 161.147 121.918 161.2 121.305 161.2ZM130.674 150.1C131.981 150.1 132.947 150.387 133.574 150.96C134.201 151.533 134.514 152.447 134.514 153.7V161H133.234L132.894 159.48H132.814C132.507 159.867 132.187 160.193 131.854 160.46C131.534 160.713 131.161 160.9 130.734 161.02C130.321 161.14 129.814 161.2 129.214 161.2C128.574 161.2 127.994 161.087 127.474 160.86C126.967 160.633 126.567 160.287 126.274 159.82C125.981 159.34 125.834 158.74 125.834 158.02C125.834 156.953 126.254 156.133 127.094 155.56C127.934 154.973 129.227 154.653 130.974 154.6L132.794 154.54V153.9C132.794 153.007 132.601 152.387 132.214 152.04C131.827 151.693 131.281 151.52 130.574 151.52C130.014 151.52 129.481 151.607 128.974 151.78C128.467 151.94 127.994 152.127 127.554 152.34L127.014 151.02C127.481 150.767 128.034 150.553 128.674 150.38C129.314 150.193 129.981 150.1 130.674 150.1ZM131.194 155.82C129.861 155.873 128.934 156.087 128.414 156.46C127.907 156.833 127.654 157.36 127.654 158.04C127.654 158.64 127.834 159.08 128.194 159.36C128.567 159.64 129.041 159.78 129.614 159.78C130.521 159.78 131.274 159.533 131.874 159.04C132.474 158.533 132.774 157.76 132.774 156.72V155.76L131.194 155.82ZM144.805 158.04C144.805 158.733 144.632 159.313 144.285 159.78C143.938 160.247 143.445 160.6 142.805 160.84C142.165 161.08 141.405 161.2 140.525 161.2C139.778 161.2 139.132 161.14 138.585 161.02C138.052 160.9 137.578 160.733 137.165 160.52V158.92C137.592 159.133 138.105 159.333 138.705 159.52C139.318 159.693 139.938 159.78 140.565 159.78C141.458 159.78 142.105 159.64 142.505 159.36C142.905 159.067 143.105 158.68 143.105 158.2C143.105 157.933 143.032 157.693 142.885 157.48C142.738 157.267 142.472 157.053 142.085 156.84C141.712 156.627 141.172 156.387 140.465 156.12C139.772 155.853 139.178 155.587 138.685 155.32C138.192 155.053 137.812 154.733 137.545 154.36C137.278 153.987 137.145 153.507 137.145 152.92C137.145 152.013 137.512 151.313 138.245 150.82C138.992 150.327 139.965 150.08 141.165 150.08C141.818 150.08 142.425 150.147 142.985 150.28C143.558 150.4 144.092 150.573 144.585 150.8L143.985 152.2C143.692 152.067 143.378 151.953 143.045 151.86C142.725 151.753 142.398 151.673 142.065 151.62C141.732 151.553 141.392 151.52 141.045 151.52C140.325 151.52 139.772 151.64 139.385 151.88C139.012 152.107 138.825 152.42 138.825 152.82C138.825 153.113 138.912 153.367 139.085 153.58C139.258 153.78 139.545 153.98 139.945 154.18C140.358 154.367 140.905 154.593 141.585 154.86C142.265 155.113 142.845 155.373 143.325 155.64C143.805 155.907 144.172 156.233 144.425 156.62C144.678 156.993 144.805 157.467 144.805 158.04Z" fill="black"/>
<path d="M128.833 65.49L106.664 63.5783L97.9998 43.1667L89.3357 63.6092L67.1665 65.49L84.0015 80.0742L78.9448 101.75L97.9998 90.2492L117.055 101.75L112.029 80.0742L128.833 65.49ZM97.9998 84.4833V55.8083L103.272 68.265L116.777 69.4367L106.541 78.3167L109.624 91.5133L97.9998 84.4833Z" fill="white"/>
<defs>
<filter id="filter0_d_178_155" x="0" y="0" width="196" height="198" filterUnits="userSpaceOnUse" color-interpolation-filters="sRGB">
<feFlood flood-opacity="0" result="BackgroundImageFix"/>
<feColorMatrix in="SourceAlpha" type="matrix" values="0 0 0 0 0 0 0 0 0 0 0 0 0 0 0 0 0 0 127 0" result="hardAlpha"/>
<feOffset dy="4"/>
<feGaussianBlur stdDeviation="2"/>
<feComposite in2="hardAlpha" operator="out"/>
<feColorMatrix type="matrix" values="0 0 0 0 0 0 0 0 0 0 0 0 0 0 0 0 0 0 0.25 0"/>
<feBlend mode="normal" in2="BackgroundImageFix" result="effect1_dropShadow_178_155"/>
<feBlend mode="normal" in="SourceGraphic" in2="effect1_dropShadow_178_155" result="shape"/>
</filter>
</defs>
</svg>
