<svg width="373" height="96" viewBox="0 0 373 96" fill="none" xmlns="http://www.w3.org/2000/svg">
<path d="M126.712 67H117.712V44.75H109.662V38.5H134.762V44.75H126.712V67ZM147.754 67.65C143.754 67.65 140.754 66.7167 138.754 64.85C136.787 62.95 135.804 59.9667 135.804 55.9C135.804 53.6667 136.004 51.7167 136.404 50.05C136.837 48.35 137.354 47.1667 137.954 46.5C138.72 45.6333 140.12 44.9167 142.154 44.35C144.22 43.7833 146.154 43.5 147.954 43.5C152.254 43.5 155.32 44.4167 157.154 46.25C158.987 48.0833 159.904 51.0167 159.904 55.05C159.904 59.3833 158.92 62.5667 156.954 64.6C154.987 66.6333 151.92 67.65 147.754 67.65ZM147.904 61.8C149.204 61.8 150.054 61.35 150.454 60.45C150.854 59.5167 151.054 57.8833 151.054 55.55C151.054 53.9167 150.97 52.6667 150.804 51.8C150.637 50.9 150.32 50.25 149.854 49.85C149.42 49.4167 148.737 49.2 147.804 49.2C146.47 49.2 145.704 49.3167 145.504 49.55C145.237 49.7833 145.02 50.5167 144.854 51.75C144.687 52.9833 144.604 54.2667 144.604 55.6C144.604 57.8667 144.82 59.4667 145.254 60.4C145.72 61.3333 146.604 61.8 147.904 61.8ZM178.967 43.5C181.367 43.5 183.267 44.3 184.667 45.9C186.101 47.4667 186.817 50.2167 186.817 54.15C186.817 57.0833 186.534 59.4833 185.967 61.35C185.401 63.1833 184.751 64.4 184.017 65C183.284 65.6 182.001 66.0833 180.167 66.45C178.367 66.8167 176.501 67 174.567 67C174.001 67 173.051 66.9667 171.717 66.9V74L163.167 74.35V44H170.167L171.017 47.55C171.884 46.3167 172.984 45.3333 174.317 44.6C175.684 43.8667 177.234 43.5 178.967 43.5ZM176.967 60.9C177.334 60.6333 177.601 59.8833 177.767 58.65C177.934 57.3833 178.017 56.1833 178.017 55.05C178.017 53.1833 177.784 51.8 177.317 50.9C176.851 50 175.917 49.55 174.517 49.55C173.517 49.55 172.584 49.65 171.717 49.85V60.95L173.117 61.1C173.551 61.1333 174.167 61.15 174.967 61.15C176.101 61.15 176.767 61.0667 176.967 60.9ZM204.119 61C204.952 61 206.502 60.9167 208.769 60.75C209.069 60.75 209.619 60.7167 210.419 60.65L211.169 65.8C208.602 67 205.269 67.6 201.169 67.6C197.336 67.6 194.386 66.6333 192.319 64.7C190.286 62.7667 189.269 59.85 189.269 55.95C189.269 53.95 189.519 52.0167 190.019 50.15C190.552 48.2833 191.152 46.9833 191.819 46.25C192.519 45.5167 193.819 44.8833 195.719 44.35C197.619 43.8167 199.502 43.55 201.369 43.55C204.369 43.55 206.619 44.0833 208.119 45.15C209.619 46.2167 210.602 47.7 211.069 49.6C211.536 51.4667 211.769 53.9833 211.769 57.15C209.502 57.2833 207.286 57.35 205.119 57.35H198.019C198.019 58.4167 198.236 59.2167 198.669 59.75C199.136 60.2833 199.786 60.6333 200.619 60.8C201.452 60.9333 202.619 61 204.119 61ZM198.519 49.5C198.319 49.6 198.169 50.0333 198.069 50.8C197.969 51.5667 197.902 52.4333 197.869 53.4H200.469C202.036 53.4 203.169 53.3833 203.869 53.35C203.869 51.75 203.636 50.6167 203.169 49.95C202.736 49.2833 201.969 48.95 200.869 48.95C199.969 48.95 199.186 49.1333 198.519 49.5ZM229.029 43.5C229.462 43.5 229.912 43.55 230.379 43.65C230.879 43.75 231.245 43.8667 231.479 44C231.479 44.7333 231.395 45.95 231.229 47.65C231.062 49.3167 230.912 50.5 230.779 51.2C230.445 51.1667 229.829 51.15 228.929 51.15C226.829 51.15 224.962 51.2667 223.329 51.5V67H214.779V44H221.929L222.929 47.7H222.979C223.945 46.4333 224.979 45.4167 226.079 44.65C227.179 43.8833 228.162 43.5 229.029 43.5ZM256.524 66.05C255.29 66.5833 253.857 66.9667 252.224 67.2C250.59 67.4333 249.074 67.55 247.674 67.55C243.14 67.55 239.59 66.3667 237.024 64C234.457 61.6333 233.174 58 233.174 53.1C233.174 48.1 234.524 44.3667 237.224 41.9C239.924 39.4 243.724 38.15 248.624 38.15C250.957 38.15 253.39 38.4667 255.924 39.1C255.924 39.7667 255.857 40.7667 255.724 42.1C255.59 43.4 255.457 44.3167 255.324 44.85H252.174C249.874 44.85 248.057 44.9 246.724 45C245.424 45.0667 244.64 45.2167 244.374 45.45C243.874 45.9167 243.49 46.8667 243.224 48.3C242.957 49.7 242.824 51.05 242.824 52.35C242.824 54.6167 243.107 56.3667 243.674 57.6C244.24 58.8 244.957 59.6 245.824 60C246.657 60.4 248.04 60.6 249.974 60.6C251.507 60.6 253.507 60.4667 255.974 60.2L256.524 66.05ZM282.359 44V67H275.409L274.459 63.15C272.059 66.05 269.192 67.5 265.859 67.5C264.659 67.5 263.525 67.3333 262.459 67C261.425 66.6667 260.642 66.1833 260.109 65.55C259.809 65.1833 259.575 64.2667 259.409 62.8C259.275 61.3333 259.209 59.1 259.209 56.1V44H267.759V56C267.759 56.6667 267.775 57.45 267.809 58.35C267.842 59.25 267.942 59.8167 268.109 60.05C268.342 60.3833 269.009 60.55 270.109 60.55L270.909 60.5C271.842 60.4667 272.809 60.25 273.809 59.85V44H282.359ZM300.708 43.5C301.142 43.5 301.592 43.55 302.058 43.65C302.558 43.75 302.925 43.8667 303.158 44C303.158 44.7333 303.075 45.95 302.908 47.65C302.742 49.3167 302.592 50.5 302.458 51.2C302.125 51.1667 301.508 51.15 300.608 51.15C298.508 51.15 296.642 51.2667 295.008 51.5V67H286.458V44H293.608L294.608 47.7H294.658C295.625 46.4333 296.658 45.4167 297.758 44.65C298.858 43.8833 299.842 43.5 300.708 43.5ZM324.004 59.2C324.004 62.1667 323.054 64.3 321.154 65.6C319.287 66.9 316.62 67.55 313.154 67.55C310.72 67.55 307.92 67.2 304.754 66.5C304.82 65.8333 304.97 64.8833 305.204 63.65C305.47 62.3833 305.687 61.4167 305.854 60.75C307.054 60.95 308.387 61.1167 309.854 61.25C311.32 61.35 312.57 61.4 313.604 61.4C314.504 61.4 315.054 61.35 315.254 61.25C315.287 61.2167 315.32 61.1333 315.354 61C315.42 60.8333 315.454 60.6667 315.454 60.5C315.454 59.8333 315.037 59.3833 314.204 59.15C313.937 59.0833 312.92 58.8 311.154 58.3C309.387 57.8 307.937 56.9 306.804 55.6C305.704 54.2667 305.154 52.6167 305.154 50.65C305.154 49.6167 305.387 48.4667 305.854 47.2C306.32 45.9333 306.82 45.1333 307.354 44.8C307.754 44.5333 308.72 44.2667 310.254 44C311.787 43.7 313.204 43.55 314.504 43.55C317.27 43.55 320.054 43.75 322.854 44.15C322.854 44.75 322.77 45.7667 322.604 47.2C322.437 48.6 322.287 49.4833 322.154 49.85C319.32 49.4833 317.037 49.3 315.304 49.3C314.404 49.3 313.82 49.35 313.554 49.45C313.487 49.4833 313.42 49.5833 313.354 49.75C313.287 49.8833 313.254 50.0667 313.254 50.3C313.254 50.7667 313.404 51.1 313.704 51.3C314.004 51.5333 314.787 51.8167 316.054 52.15C317.554 52.5833 318.837 53.0333 319.904 53.5C321.004 53.9667 321.954 54.6667 322.754 55.6C323.587 56.5333 324.004 57.7333 324.004 59.2ZM337.939 67.65C333.939 67.65 330.939 66.7167 328.939 64.85C326.972 62.95 325.989 59.9667 325.989 55.9C325.989 53.6667 326.189 51.7167 326.589 50.05C327.022 48.35 327.539 47.1667 328.139 46.5C328.906 45.6333 330.306 44.9167 332.339 44.35C334.406 43.7833 336.339 43.5 338.139 43.5C342.439 43.5 345.506 44.4167 347.339 46.25C349.172 48.0833 350.089 51.0167 350.089 55.05C350.089 59.3833 349.106 62.5667 347.139 64.6C345.172 66.6333 342.106 67.65 337.939 67.65ZM338.089 61.8C339.389 61.8 340.239 61.35 340.639 60.45C341.039 59.5167 341.239 57.8833 341.239 55.55C341.239 53.9167 341.156 52.6667 340.989 51.8C340.822 50.9 340.506 50.25 340.039 49.85C339.606 49.4167 338.922 49.2 337.989 49.2C336.656 49.2 335.889 49.3167 335.689 49.55C335.422 49.7833 335.206 50.5167 335.039 51.75C334.872 52.9833 334.789 54.2667 334.789 55.6C334.789 57.8667 335.006 59.4667 335.439 60.4C335.906 61.3333 336.789 61.8 338.089 61.8ZM371.953 59.2C371.953 62.1667 371.003 64.3 369.103 65.6C367.236 66.9 364.569 67.55 361.103 67.55C358.669 67.55 355.869 67.2 352.703 66.5C352.769 65.8333 352.919 64.8833 353.153 63.65C353.419 62.3833 353.636 61.4167 353.803 60.75C355.003 60.95 356.336 61.1167 357.803 61.25C359.269 61.35 360.519 61.4 361.553 61.4C362.453 61.4 363.003 61.35 363.203 61.25C363.236 61.2167 363.269 61.1333 363.303 61C363.369 60.8333 363.403 60.6667 363.403 60.5C363.403 59.8333 362.986 59.3833 362.153 59.15C361.886 59.0833 360.869 58.8 359.103 58.3C357.336 57.8 355.886 56.9 354.753 55.6C353.653 54.2667 353.103 52.6167 353.103 50.65C353.103 49.6167 353.336 48.4667 353.803 47.2C354.269 45.9333 354.769 45.1333 355.303 44.8C355.703 44.5333 356.669 44.2667 358.203 44C359.736 43.7 361.153 43.55 362.453 43.55C365.219 43.55 368.003 43.75 370.803 44.15C370.803 44.75 370.719 45.7667 370.553 47.2C370.386 48.6 370.236 49.4833 370.103 49.85C367.269 49.4833 364.986 49.3 363.253 49.3C362.353 49.3 361.769 49.35 361.503 49.45C361.436 49.4833 361.369 49.5833 361.303 49.75C361.236 49.8833 361.203 50.0667 361.203 50.3C361.203 50.7667 361.353 51.1 361.653 51.3C361.953 51.5333 362.736 51.8167 364.003 52.15C365.503 52.5833 366.786 53.0333 367.853 53.5C368.953 53.9667 369.903 54.6667 370.703 55.6C371.536 56.5333 371.953 57.7333 371.953 59.2Z" fill="#C985F1"/>
<circle cx="47.5" cy="47.5" r="47.5" fill="#C985F1"/>
<circle cx="47.5" cy="47.5" r="31.5" fill="white"/>
<rect x="25" y="10" width="19" height="49" fill="#C985F1"/>
<rect x="51" y="41" width="19" height="49" fill="#C985F1"/>
</svg>
